<?xml version="1.0" encoding="utf-8"?>
<!-- Generator: Adobe Illustrator 22.0.1, SVG Export Plug-In . SVG Version: 6.00 Build 0)  -->
<svg version="1.1" id="Layer_1" xmlns="http://www.w3.org/2000/svg" xmlns:xlink="http://www.w3.org/1999/xlink" x="0px" y="0px"
	 viewBox="0 0 103.4 52.2" style="enable-background:new 0 0 103.4 52.2;" xml:space="preserve">
<style type="text/css">
	.st0{fill:#3299CD;}
	.st1{fill:url(#SVGID_1_);}
	.st2{fill:#105B72;}
	.st3{fill:url(#SVGID_2_);}
	.st4{fill:url(#SVGID_3_);}
	.st5{fill:#444444;}
	.st6{fill:url(#SVGID_4_);}
	.st7{fill:url(#SVGID_5_);}
	.st8{fill:url(#SVGID_6_);}
	.st9{fill:url(#SVGID_7_);}
	.st10{fill:url(#SVGID_8_);}
	.st11{fill:url(#SVGID_9_);}
	.st12{fill:url(#SVGID_10_);}
	.st13{fill:url(#SVGID_11_);}
	.st14{fill:#828282;}
	.st15{fill:#EAEAEA;}
	.st16{fill:#C9C9C9;}
	.st17{fill:url(#SVGID_12_);}
	.st18{fill:url(#SVGID_13_);}
	.st19{fill:url(#SVGID_14_);}
	.st20{fill:url(#SVGID_15_);}
	.st21{fill:url(#SVGID_16_);}
	.st22{fill:url(#SVGID_17_);}
</style>
<title>logo</title>
<path class="st0" d="M48.6,7.4h7.3c2.7,0,4.8,1.2,4.8,5.2s-1.5,4.6-2.6,4.9l3,6.4h-4.2l-2.5-6.1l-2.2-0.3V24h-3.7V7.4H48.6z
	 M55.5,14.7c1.1,0,1.5-0.4,1.5-2.1c0-1.5-0.5-2-1.5-2h-3.2v4.1L55.5,14.7z"/>
<path class="st0" d="M68.7,7.3c3.9,0,6.7,0.8,6.7,8.5c0,7.3-2.7,8.3-6.7,8.3S62,23.3,62,15.8C61.9,8.1,64.9,7.3,68.7,7.3z
	 M68.7,20.7c2.3,0,3-0.8,3-4.9c0-4.6-0.7-5.1-3-5.1s-3,0.4-3,5.1C65.6,19.9,66.1,20.7,68.7,20.7z"/>
<path class="st0" d="M82.5,7.2c2-0.1,4,0.2,5.9,0.8v3c-1.6-0.2-3.2-0.3-4.8-0.3c-2.1,0-3,0.2-3,5.1c0,3.7,0.5,5,3,5s4.8-0.2,4.8-0.2
	v2.9c-1.9,0.6-3.9,0.8-5.9,0.7c-4.2,0-5.7-3.1-5.7-8.5S77.9,7.2,82.5,7.2z"/>
<path class="st0" d="M90.1,7.4h3.6v6.7h1.1l3.8-6.8h4.3l-4.8,8.3l4.8,8.3h-4.3l-3.8-6.5h-1.2V24H90L90.1,7.4L90.1,7.4z"/>
<path class="st0" d="M52.4,25.3c2.6,0,4.5,0.5,4.5,5.7c0,4.9-1.8,5.5-4.5,5.5S47.9,36,47.9,31C47.9,25.8,49.9,25.3,52.4,25.3z
	 M52.4,34.3c1.6,0,2-0.6,2-3.3c0-3.1-0.5-3.4-2-3.4s-2,0.3-2,3.4C50.4,33.7,50.7,34.3,52.4,34.3L52.4,34.3z"/>
<path class="st0" d="M57.8,27.8c-0.1-1.3,0.8-2.4,2.1-2.5c0.2,0,0.3,0,0.5,0c0,0,3.6,0.1,4.9,0.2v2.1h-4.2c-0.8,0-0.8,0.4-0.8,0.8
	v1.3l4.3,0.2v2l-4.3,0.2v4.3h-2.5V27.8z"/>
<path class="st0" d="M70.8,25.4h2.9l3.5,11.1h-2.6l-0.8-2.3h-3.3l-0.7,2.2h-2.6L70.8,25.4z M73.3,32.1l-1-3.5l-1.2,3.5H73.3z"/>
<path class="st0" d="M81,25.3c1.5-0.1,3,0.1,4.4,0.5v1.9c-1.2-0.2-2.5-0.3-3.7-0.3c-1.6,0-1.8,0.9-1.8,3.5s0.2,3.3,1.7,3.3
	c0.6,0,1.2-0.3,1.5-0.7v-1.6h-1.2v-1.6c0.8-0.3,1.7-0.4,2.6-0.4c0.3,0,0.7,0,1,0v6.4h-1.7l-0.7-0.7c-0.5,0.6-1.3,0.9-2.1,0.8
	c-3.1,0.2-3.6-2.5-3.6-5.7S78,25.3,81,25.3z"/>
<path class="st0" d="M86.9,27.8c-0.1-1.2,0.8-2.3,2.1-2.4c0.2,0,0.3,0,0.5,0c0,0,3.6,0.1,4.9,0.2v2.1h-4.3c-0.8,0-0.8,0.4-0.8,0.8
	v1.3l4.3,0.2v2l-4.3,0.2v1.3c0,0.8,0.5,0.8,0.9,0.8h4.1v2.1c-1.2,0.2-4.8,0.2-4.8,0.2c-1,0-2.7-0.2-2.7-2.3L86.9,27.8z"/>
<path class="st0" d="M95.4,28.2c0-2.2,1.3-2.9,3-2.9c1.5-0.1,3,0.1,4.5,0.5v1.9c-1-0.1-2.9-0.2-3.7-0.2s-1.3,0-1.3,0.9v0.4
	c0,0.7,0.2,0.9,1.1,0.9h1.6c2.2,0,2.7,1.8,2.7,3v0.6c0,2.6-1.6,3.2-3.1,3.2c-1.5,0.1-3,0-4.4-0.4v-2c0.6,0.1,2.5,0.2,3.9,0.2
	c0.7,0,1.2-0.1,1.2-0.8v-0.4c0-0.5-0.2-0.9-0.9-0.9h-1.6c-1.5,0.1-2.8-1-2.9-2.5c0-0.2,0-0.5,0-0.7L95.4,28.2L95.4,28.2z"/>
<path d="M48.4,38.3h2.1c0.7-0.1,1.3,0.5,1.4,1.2c0,0.1,0,0.1,0,0.2c0.1,0.5-0.2,1-0.7,1.2c0.3,0.1,0.7,0.5,0.7,1.2
	c0.1,0.7-0.4,1.4-1.1,1.5c-0.1,0-0.2,0-0.3,0h-2.1C48.4,43.6,48.4,38.3,48.4,38.3z M50.5,40.5c0.5,0,0.8-0.3,0.8-0.8
	c0.1-0.4-0.2-0.7-0.6-0.8c-0.1,0-0.1,0-0.2,0h-1.3v1.6H50.5z M50.5,42.9c0.3,0,0.8-0.1,0.8-0.9c0-0.5-0.2-0.9-0.8-0.9h-1.3v1.8
	C49.2,42.9,50.5,42.9,50.5,42.9z"/>
<path d="M54.1,38.3h0.7l1.8,5.3h-0.7l-0.4-1.4h-2L53,43.6h-0.8L54.1,38.3z M55.3,41.6l-0.8-2.3l-0.8,2.3H55.3z"/>
<path d="M57.3,38.3h2.2c0.6,0,1.3,0.2,1.3,1.6c0,1.5-0.8,1.6-1.3,1.6c-0.3,0-1.5-0.1-1.5-0.1v2.2h-0.7V38.3z M59.4,40.8
	c0.4,0,0.7-0.1,0.7-1s-0.4-0.9-0.7-0.9h-1.5v1.9H59.4z"/>
<path d="M61.4,38.3h3.8v0.6h-1.6v4.6h-0.7v-4.6h-1.5C61.4,38.9,61.4,38.3,61.4,38.3z"/>
<path d="M65.8,38.3h0.7v5.3h-0.7V38.3z"/>
<path d="M67.3,39.6c0-1,0.6-1.3,1.4-1.3c0.6,0,1.3,0.1,1.9,0.2V39c-0.5,0-1.7-0.1-1.8-0.1c-0.5,0-0.8,0-0.8,0.7V40
	c0,0.6,0.3,0.7,0.7,0.7h1c1,0,1.2,0.7,1.2,1.3v0.5c0,1.1-0.8,1.2-1.5,1.2c-0.6,0-1.2-0.1-1.9-0.2V43c0.3,0,1.1,0.1,1.8,0.1
	c0.3,0,0.8,0,0.8-0.6V42c0-0.4-0.1-0.6-0.6-0.6h-1c-1.2,0-1.3-0.7-1.3-1.3L67.3,39.6z"/>
<path d="M71.2,38.3H75v0.6h-1.6v4.6h-0.7v-4.6h-1.5C71.2,38.9,71.2,38.3,71.2,38.3z"/>
<path d="M79.1,38.2c0.6,0,1.2,0.1,1.8,0.2V39c0,0-1-0.1-1.7-0.1c-0.9,0-1.2,0.3-1.2,2c0,1.2,0.2,2,1.2,2c0.8,0,1.7,0,1.7,0v0.5
	c-0.6,0.1-1.2,0.2-1.8,0.2c-1.3,0-1.8-1.1-1.8-2.7S77.6,38.2,79.1,38.2z"/>
<path d="M81.6,38.3h0.7v2.4h2.3v-2.4h0.7v5.3h-0.7v-2.2h-2.3v2.2h-0.7V38.3z"/>
<path d="M86.2,38.3h0.7v3c0,1.7,0.5,1.7,1.3,1.7s1.3-0.1,1.3-1.7v-3h0.7v3c0,2.3-1.1,2.3-1.9,2.3s-2,0.1-2-2.3L86.2,38.3z"/>
<path d="M90.9,38.3h2.3c0.7,0,1.3,0.4,1.3,1.6s-0.7,1.5-0.9,1.5l1.1,2.2H94l-1-2.1l-1.3-0.1v2.2H91L90.9,38.3z M93.2,40.8
	c0.3,0,0.6,0,0.6-0.9s-0.3-1-0.6-1h-1.6v1.9H93.2z"/>
<path d="M96.8,38.2c0.6,0,1.2,0.1,1.8,0.2V39c0,0-1-0.1-1.7-0.1c-0.9,0-1.2,0.3-1.2,2c0,1.2,0.2,2,1.2,2c0.8,0,1.7,0,1.7,0v0.5
	c-0.6,0.1-1.2,0.2-1.8,0.2c-1.3,0-1.8-1.1-1.8-2.7S95.4,38.2,96.8,38.2z"/>
<path d="M99.4,38.3h0.7v2.4h2.3v-2.4h0.7v5.3h-0.7v-2.2H100v2.2h-0.7L99.4,38.3L99.4,38.3z"/>
<g>
	
		<radialGradient id="SVGID_1_" cx="-546.3972" cy="6906.9292" r="65.3633" gradientTransform="matrix(0.331 0 0 5.808334e-02 202.6413 -352.8428)" gradientUnits="userSpaceOnUse">
		<stop  offset="0" style="stop-color:#555555"/>
		<stop  offset="0.2548" style="stop-color:#8F8F8F"/>
		<stop  offset="0.498" style="stop-color:#BFBFBF"/>
		<stop  offset="0.7111" style="stop-color:#E2E2E2"/>
		<stop  offset="0.8856" style="stop-color:#F7F7F7"/>
		<stop  offset="1" style="stop-color:#FFFFFF"/>
	</radialGradient>
	<path class="st1" d="M43.4,48.3c0,2.1-9.7,3.8-21.6,3.8c-11.9,0-21.6-1.7-21.6-3.8c0-2.1,9.7-3.8,21.6-3.8
		C33.7,44.5,43.4,46.2,43.4,48.3z"/>
	<g>
		<path class="st2" d="M0.8,29.9c0,0.2,0.8-1.8,0.8-1.6c0,0.1,0.2,2.8,0.2,3c0.5,2.5,0.9,4.8,2.2,7c0.1,0.1,1.1,1.3,1.1,1.5
			c0,0.1-0.9,0.4-1.2-0.5c-0.1,0-0.2,0.2-0.2,0.2c-0.6-0.4-1.1-1.3-1.6-1.9c-0.3-0.4-0.6-0.8-0.8-1.3c-0.2-0.3-0.3-0.7-0.4-1.1
			c-0.2-0.5-0.2-1-0.3-1.5c-0.1-0.8,0-1.5,0-2.3C0.8,31,0.7,30.3,0.8,29.9z"/>
		<path class="st2" d="M35,11.8c0.3,0.1,0.6,0.2,0.9,0.4c0.3,0.2,0.6,0.3,0.9,0.5c0.1,0,0.2,0.1,0.2,0.2c0.4,0.3,0.7,0.6,1,0.8
			c0.1,0.1,0.1,0.1,0.2,0.2c0.5,0.5,0.9,1.1,1.3,1.7c0,0,0,0,0,0.1c0.3,0.7,0.6,1.4,0.7,2.1c0.1,0.3,0.1,0.7,0.1,1c0,0,0,0,0,0.1
			c-0.1-0.1-0.2-0.2-0.3-0.2c-0.2-0.1-0.3-0.3-0.4-0.6c-1.1-2.3-2.7-4.3-4.6-6C35.1,11.9,35,11.9,35,11.8C35,11.8,35,11.8,35,11.8z"
			/>
	</g>
	<radialGradient id="SVGID_2_" cx="21.4241" cy="27.4057" r="20.6742" gradientUnits="userSpaceOnUse">
		<stop  offset="0" style="stop-color:#FFFFFF"/>
		<stop  offset="1" style="stop-color:#D2D2D2"/>
	</radialGradient>
	<circle class="st3" cx="21.4" cy="27.4" r="20.7"/>
	<g>
		<radialGradient id="SVGID_3_" cx="22.9031" cy="24.5199" r="16.9755" gradientUnits="userSpaceOnUse">
			<stop  offset="0" style="stop-color:#FFFFFF"/>
			<stop  offset="1" style="stop-color:#000000"/>
		</radialGradient>
		<path class="st4" d="M23.8,12.3C23.8,12.3,23.8,12.2,23.8,12.3c0.1-0.1,0.3-0.2,0.4-0.2c0,0,0.1,0,0.1,0c0-0.1,0-0.2-0.1-0.3
			c0-0.1,0.1-0.1,0.1-0.2c0-0.1,0.1-0.1,0.2-0.1c0.1,0,0.2,0,0.2,0.2c0,0.1,0,0.2,0.1,0.3c0.1,0,0.1,0,0.2,0c0,0,0.1-0.1,0.1-0.1
			c0.1-0.1,0.2-0.2,0.3-0.2c0,0,0,0,0,0c0.1-0.1,0.3-0.1,0.5-0.2c0.1-0.1,0.1-0.1,0.2,0c0.1,0.1,0.1,0.1,0.3,0c0,0,0.1,0,0.2-0.1
			c0.1,0,0.1,0,0.2,0c-0.1-0.1-0.2-0.1-0.2-0.2c0.1-0.1,0.1-0.2,0.2-0.3C26.9,11,27,11,27.2,11c0.2,0,0.3-0.1,0.5,0c0,0,0.1,0,0.1,0
			c-0.1,0-0.1-0.1-0.2-0.1c0.1-0.1,0.1-0.2,0-0.4c-0.1-0.1-0.1-0.2,0-0.3c0,0,0.1-0.1,0.1-0.1c0.1-0.1,0.1-0.1,0.2,0c0,0,0,0,0.1,0
			c0.2,0.1,0.2,0.1,0.4-0.1c0,0,0,0,0,0.1c0,0,0,0,0,0c0.1,0,0.2,0,0.3,0.1c0-0.1,0-0.2,0.2-0.3c-0.1-0.1,0-0.2,0-0.2
			c0,0,0-0.1,0.1-0.1c0.1-0.1,0.1-0.2-0.1-0.3c0,0,0,0-0.1-0.1C29,9,29.1,8.8,29.2,8.6c-0.1,0-0.2-0.1-0.3-0.1
			c0,0.2-0.1,0.4-0.1,0.6c-0.1-0.1-0.2-0.1-0.3-0.1c-0.1,0-0.2,0-0.3,0c-0.1,0-0.3,0-0.4,0c-0.2,0-0.3-0.1-0.4-0.3
			c0-0.1,0.1-0.3,0.2-0.4c0,0,0.1,0,0.1,0c0.1,0,0.2,0,0.2,0.1c0.1,0,0.2,0,0.3,0.1c0.1,0,0.2,0.1,0.2,0.1c0.1,0,0.1-0.1,0.2,0
			c0.1,0,0.1,0,0.2-0.1c0.1-0.1,0.1-0.1,0.2,0c0.1-0.1,0.2-0.2,0.3-0.1c0,0,0.1,0,0.1,0c0.2,0.1,0.2,0.1,0.2,0.3c0,0,0,0,0,0
			c0.1,0,0.1-0.2,0.3-0.1c0,0,0,0.1,0,0.1c0,0,0,0,0.1,0c0.2,0,0.3,0.1,0.5,0.1c0.5,0.2,1,0.5,1.5,0.8c0.5,0.3,0.9,0.6,1.4,0.9
			c2.7,2,4.9,4.5,6.4,7.5c0.2,0.5,0.4,0.9,0.7,1.4c0,0.1,0.1,0.2,0,0.3c-0.1,1.5-0.5,3-1.1,4.4c-0.8,1.7-1.8,3.2-2.9,4.7
			c0,0-0.1,0.1-0.1,0.1c-0.1-0.2-0.1-0.4,0-0.5c0-0.1,0-0.3-0.1-0.4c-0.1,0.1-0.2,0.2-0.4,0.3c-0.1,0.1-0.2,0-0.3-0.1
			c-0.1-0.1-0.2-0.2-0.3-0.4c0.1-0.1,0.1-0.1,0.2-0.2c0,0,0,0,0,0c-0.2,0-0.3-0.1-0.4-0.3c0,0-0.1-0.1-0.1-0.1
			c-0.1,0-0.2-0.1-0.2-0.2c-0.1-0.1-0.2-0.2-0.3-0.3c0,0-0.1,0-0.1,0c-0.1,0-0.1,0-0.1,0c-0.3,0.1-0.6,0.1-0.9,0.2
			c-0.1,0-0.1,0-0.2,0.1c-0.1,0-0.2,0.1-0.3,0c-0.2,0-0.4,0-0.6,0c-0.1,0-0.3,0-0.4,0c-0.2,0-0.2-0.1-0.3-0.3c0-0.1,0-0.2-0.1-0.2
			c-0.1-0.1-0.2-0.1-0.2,0c-0.3,0.2-0.6,0.3-0.9,0.1c-0.1-0.1-0.2-0.1-0.3-0.2c-0.1,0-0.2-0.1-0.3-0.1c-0.1,0-0.2-0.1-0.2-0.2
			c-0.1-0.2-0.2-0.4-0.4-0.6c-0.2-0.2-0.7-0.2-0.8,0.1c0,0.1,0,0.2,0,0.2c0.1,0.2,0.2,0.3,0.3,0.5c0.1,0.2,0.3,0.3,0.4,0.4
			c0.1,0.1,0.1,0.1,0.2,0.2c0,0.1,0.1,0.1,0.1,0.2c0,0,0,0.1,0.1,0.1c0,0,0,0,0,0c0,0,0-0.1,0.1-0.1c0-0.1,0.1-0.1,0.2-0.1
			c0.1,0,0.1,0.1,0.1,0.1c0,0.1,0,0.3,0,0.4c0,0.2,0.1,0.3,0.3,0.3c0.1,0,0.2-0.1,0.3-0.1c0.1,0,0.2,0,0.3-0.1
			c0.1,0,0.1-0.1,0.2-0.2c0.1-0.1,0.2-0.3,0.3-0.4c0.1-0.1,0.1-0.2,0.2-0.3c0.1,0.1,0.1,0.3,0.1,0.4c0,0.1,0,0.2,0.1,0.3
			c0.1,0.1,0.3,0.2,0.4,0.2c0.2,0,0.3,0.1,0.4,0.2c0.1,0.1,0.1,0.2,0.2,0.2c0,0,0.1,0.1,0,0.1c0,0.1-0.1,0.2-0.1,0.3
			c-0.1,0.1-0.1,0.2-0.1,0.3c0,0.1,0,0.2-0.2,0.2c-0.1,0-0.1,0.1-0.2,0.2c0,0.1,0,0.2,0,0.3c0,0.1,0,0.2-0.1,0.2
			c-0.1,0.1-0.2,0.1-0.3,0.3c0,0.1-0.1,0.1-0.2,0.2c-0.2,0-0.2,0.1-0.3,0.3c0,0.1-0.1,0.2-0.2,0.2c-0.3,0-0.5,0.2-0.7,0.3
			c-0.1,0-0.2,0.1-0.2,0.3c0,0.1-0.1,0.2-0.2,0.2c-0.2,0.1-0.3,0.2-0.5,0.2c-0.2,0.1-0.4,0.2-0.5,0.3c0,0-0.1,0.1-0.2,0.1
			c-0.1,0-0.2,0.1-0.3,0.1c-0.1,0.1-0.3,0.2-0.5,0.2c-0.1,0-0.2,0-0.3,0.1c-0.2,0.2-0.4,0.2-0.6,0.3c-0.2,0-0.2,0-0.2,0.2
			c0,0,0,0.1,0,0.1c-0.1,0.1,0,0.2,0.1,0.3c0,0,0.1,0.1,0.1,0.2c0.2,0.2,0.3,0.2,0.5,0.1c0.1-0.1,0.2-0.1,0.4-0.1
			c0.1,0,0.2,0,0.3-0.1c0.1-0.1,0.2-0.1,0.3-0.1c0.2,0,0.4-0.1,0.7-0.1c0.1,0,0.2-0.1,0.3-0.2c0-0.1,0.1-0.1,0.2-0.1
			c0.1,0,0.1,0.1,0.1,0.2c0,0.1,0,0.2,0,0.3c0,0.1,0,0.1,0,0.2c0,0.1-0.1,0.1-0.1,0.2c-0.1,0.3-0.2,0.5-0.4,0.8
			c-0.1,0.2-0.2,0.4-0.3,0.5c0,0.1-0.1,0.2-0.1,0.3c-0.1,0.1-0.1,0.2-0.2,0.2c0,0-0.1,0.1-0.1,0.1c-0.1,0.2-0.3,0.3-0.5,0.5
			c-1.9,1.2-4,2.2-6.1,3c-1.9,0.7-3.8,1.3-5.8,1.6c-0.1,0-0.3,0-0.4,0.1c0-0.1,0-0.1,0-0.2c0-0.1,0-0.1,0-0.2
			c-0.1-0.2-0.2-0.3-0.3-0.5c-0.1-0.1-0.1-0.2-0.1-0.3c-0.1-0.2-0.2-0.4-0.4-0.6c-0.2-0.2-0.4-0.4-0.7-0.6c-0.1-0.1-0.2-0.3-0.3-0.5
			c0-0.1,0-0.2,0-0.2c0.1-0.1,0-0.1,0.1-0.2c0-0.2,0-0.4,0.1-0.6c0.1-0.2,0.1-0.5-0.1-0.7c0,0,0,0,0-0.1c-0.1-0.1-0.2-0.2-0.4-0.3
			c-0.1-0.1-0.2-0.1-0.3-0.1c-0.2,0-0.3,0-0.5,0c-0.2,0-0.3-0.1-0.3-0.2c-0.1-0.1-0.1-0.2-0.2-0.3c-0.1-0.2-0.3-0.3-0.5-0.4
			c-0.2,0-0.4,0-0.6,0c-0.1,0-0.1,0-0.2,0.1c-0.1,0.1-0.2,0.1-0.3,0.1c-0.1,0-0.1,0-0.2,0C10.2,35,10,35,9.9,35.1
			c-0.1,0-0.2,0-0.3,0c-0.2-0.1-0.5-0.2-0.7-0.2c-0.2,0-0.3,0-0.5,0.1C8.1,35,8,35,7.8,34.8c-0.1-0.1-0.3-0.3-0.4-0.4
			c-0.2-0.2-0.3-0.4-0.5-0.5c0,0,0-0.1-0.1-0.1c-0.1-0.1-0.2-0.2-0.3-0.3c-0.1-0.1-0.1-0.1-0.1-0.2c-0.1-0.1-0.1-0.3-0.1-0.5
			c-0.1-0.2-0.2-0.3-0.3-0.5c0-0.1-0.1-0.1-0.1-0.2c0,0,0,0,0,0c-0.2-0.1-0.2-0.3-0.3-0.5c-0.1-0.1-0.2-0.3-0.2-0.4
			c0-0.1,0-0.1,0-0.2c0.1-0.2,0-0.4,0-0.5c0-0.1,0-0.2,0-0.3c0.1-0.2,0.1-0.4,0.1-0.5c0-0.1,0-0.2,0.1-0.3c0.1-0.2,0.1-0.4,0-0.5
			c0-0.2-0.1-0.4,0-0.5c0.1-0.2,0-0.3-0.1-0.5c0-0.1,0-0.1,0-0.2c0.1-0.1,0.1-0.3,0.2-0.4c0-0.1,0.1-0.2,0.1-0.3
			c0-0.1,0.1-0.1,0.1-0.2c0.1-0.1,0.2-0.3,0.3-0.5c0-0.2,0.1-0.4,0.3-0.4c0.1,0,0.1-0.1,0.1-0.2c0-0.1,0.1-0.1,0.1-0.2
			c0.1-0.1,0.2-0.2,0.3-0.2c0.1,0,0.2,0,0.3-0.1c0,0,0.1-0.1,0.1-0.1c0.2-0.1,0.3-0.3,0.4-0.5c0-0.1,0-0.1,0-0.2
			c0-0.2,0-0.3,0.1-0.4c0,0,0.1-0.1,0.1-0.1c0.1-0.3,0.3-0.4,0.6-0.5C8.8,23.2,9,23,9.1,22.8c0.1-0.1,0.2-0.3,0.3-0.4
			c0,0,0.1-0.1,0-0.2c0-0.2-0.1-0.3-0.1-0.5c-0.1,0-0.1,0-0.1,0c-0.1,0-0.2,0-0.3-0.1c-0.1,0-0.1-0.1-0.1-0.2c0-0.1,0-0.2,0.1-0.2
			c0-0.1,0-0.1,0-0.2c-0.1-0.1,0-0.2,0-0.3c0.1-0.2,0.3-0.4,0.3-0.6c0.1-0.2,0.1-0.5,0.2-0.7c0-0.1,0-0.2,0.1-0.2c0,0,0.1,0,0.1,0
			c0.1-0.1,0.3-0.1,0.4,0c0.1,0,0.1,0,0.2,0.1c0.1,0,0.3,0,0.4,0.1c0,0,0.1,0,0.1,0c0.2,0,0.3,0,0.5,0.1c0.1,0,0.2,0,0.2-0.1
			c0.1-0.1,0.1-0.2,0.2-0.3c0.1-0.1,0.1-0.3,0.2-0.4c0-0.1,0-0.3,0-0.4c0-0.1,0-0.2-0.1-0.2c-0.1-0.1-0.1-0.1-0.2-0.2
			c0,0,0-0.1-0.1-0.1c-0.2,0-0.2-0.2-0.2-0.3c0.2-0.1,0.3-0.1,0.5,0c0.2,0.1,0.3,0,0.3-0.1c0-0.1,0-0.1,0.1-0.2
			c0.1,0,0.1,0.1,0.2,0.1c0.1,0.1,0.1,0.1,0.2,0c0.1-0.1,0.2-0.1,0.3-0.2c0.1,0,0.2-0.1,0.3-0.3c-0.2,0-0.4,0-0.6,0
			c-0.1,0-0.3,0-0.4,0c-0.1,0-0.1,0-0.2,0c-0.1,0.1-0.1,0.1-0.2,0c-0.1,0-0.2,0-0.3,0c0.1-0.1,0.1-0.2,0.1-0.3
			c0.1-0.1,0.2-0.1,0.3-0.2c-0.1-0.1-0.1-0.1-0.2-0.1c0.1-0.1,0.1-0.2,0.2-0.2c0.1-0.1,0.1-0.2,0.2-0.3c0.1,0,0.2,0,0.3-0.1
			c0.1-0.1,0.1-0.2,0.1-0.3c-0.1,0-0.2,0.1-0.2,0c0-0.1,0-0.1-0.1-0.2c0,0.1-0.1,0.1-0.1,0.2c0,0.1-0.1,0.2-0.1,0.2
			c-0.1,0.1-0.1,0.1-0.2,0.2c0,0.1-0.1,0.2-0.2,0.3c-0.1,0.1-0.2,0.2-0.3,0.2c-0.1,0-0.1,0-0.2,0c-0.1,0-0.2,0.1-0.4,0.1
			c-0.1,0-0.2,0-0.2-0.1c0,0-0.1-0.1-0.1-0.1c0-0.1,0-0.1,0.1-0.2c0.1,0,0.1-0.1,0.2-0.2c0.1-0.1,0.1-0.1,0.1-0.3c0-0.1,0-0.1,0-0.2
			c0,0,0.1,0,0.1,0c0.1,0,0.2,0,0.3-0.1c0.1-0.2,0.3-0.2,0.5-0.1c0.1,0,0.2,0.1,0.3,0.1c0.1-0.4,0.1-0.7,0.3-1.1
			c0.1,0,0.1,0,0.2,0.1c0,0,0,0,0,0c0.1-0.1,0.2-0.1,0.3-0.1c0.1,0,0.2,0,0.3-0.1c0.1,0,0.1,0.1,0.2,0.1c-0.1,0.2-0.2,0.2-0.3,0.3
			c0.1,0.1,0.2,0.1,0.3,0.2c0,0.1-0.1,0.1-0.1,0.1c-0.1,0.1-0.1,0.1-0.2,0.2c-0.1,0.1-0.1,0.1,0,0.2c0,0.1,0.1,0.1,0,0.2
			c0,0.1,0,0.2,0.1,0.2c0,0,0.1,0.1,0.1,0.2c0,0.1,0,0.1,0,0.2c0,0.1,0,0.1,0.1,0.2c0.2,0.1,0.2,0.2,0,0.3c-0.2,0.2-0.2,0.2-0.2,0.3
			c0.2,0,0.3,0,0.5-0.1c0.1-0.1,0.2-0.2,0.3-0.2c0,0,0.1,0,0.1-0.1c0.1-0.1,0.2-0.2,0.3-0.3c0,0,0.1,0,0.1,0c0.1,0,0.2,0,0.3,0
			c0.1,0,0.2,0,0.2,0c0.2,0,0.4-0.2,0.4-0.4c0-0.2,0-0.4,0.1-0.6c0-0.1,0.1-0.1,0.2-0.2c0.1,0,0.2,0,0.3-0.1c0.1,0,0.2-0.1,0.2,0
			c0.1,0.1,0.1,0.1,0,0.2c-0.1,0.1-0.1,0.1,0,0.2c0,0,0,0.1,0,0.1c0.1,0,0.2,0,0.3-0.1c0.1-0.1,0.1-0.2,0-0.3
			c-0.1-0.1-0.1-0.3-0.1-0.4c0-0.1,0-0.1,0-0.2c-0.2,0-0.3,0.1-0.4,0.1c-0.1,0-0.2,0.1-0.2,0.1c-0.1,0-0.2,0.1-0.3,0.1
			c-0.2,0-0.4-0.1-0.4-0.3c0-0.3,0-0.6,0.2-0.9c0.1-0.2,0.2-0.2,0.3-0.3c0.2,0,0.3-0.1,0.5-0.2c0.1,0,0.1-0.1,0.2-0.1
			c0,0,0.1,0,0.1,0c0.1,0,0.2,0,0.2-0.1c0.1-0.1,0.3-0.2,0.4-0.3c0.2,0,0.3,0,0.4-0.1c0.1-0.1,0.2-0.2,0.3-0.3c0,0,0.1,0,0.1-0.1
			c0.1-0.1,0.2-0.1,0.3-0.2c0,0,0-0.1,0-0.1c0-0.1,0.1-0.2,0.1-0.3c0.1,0,0.2-0.1,0.4,0c0,0,0.1,0,0.1-0.1c0.1-0.1,0.1-0.1,0.2-0.1
			c0.1,0,0.1-0.1,0.2-0.1c0.1-0.1,0.3-0.1,0.4,0c0.1,0.1,0.2,0,0.3-0.1c0.1,0,0.2-0.1,0.3-0.1c0.1,0,0.2,0,0.3-0.1
			c0.1,0,0.3,0,0.4,0.1c0,0,0,0,0,0c0.1-0.1,0.2-0.1,0.4-0.1c0.1,0,0.1,0,0.2,0.1c0,0,0.1,0,0.1,0.1c0,0,0,0.1,0.1,0.1
			c0.1,0,0.1,0,0.1,0c0.2,0,0.3,0,0.4,0.1c0,0,0.1,0,0.1,0c0.2,0,0.3,0,0.5,0.1c0.1,0,0.3,0.1,0.4,0.1c0.1,0,0.2,0.1,0.3,0.1
			c0,0,0,0,0,0c0.3,0.1,0.4,0.2,0.3,0.5C23.8,12.2,23.8,12.2,23.8,12.3c-0.1,0-0.1,0-0.2,0.1c-0.2,0.1-0.3,0.1-0.5,0
			c-0.2,0-0.4-0.1-0.6-0.1c0,0.1,0,0.2,0.1,0.3c0,0,0.1,0.1,0.1,0.1c0.1,0,0.2,0,0.2,0.1c0-0.1,0-0.2,0.1-0.2c0-0.1,0.1-0.1,0.2,0
			c0,0,0.1,0.1,0.1,0.1c0,0,0,0,0,0c0.1,0,0.2,0,0.3,0c0-0.1,0-0.1,0.1-0.2C23.7,12.4,23.7,12.3,23.8,12.3z M14.5,23.8
			c0,0.1,0,0.1,0.1,0.1c0,0,0.1,0.1,0.1,0.1c0.1,0.1,0.2,0.1,0.3,0.2c0.1,0,0.1,0,0.2,0c0.1,0,0.2,0,0.3,0c0.1,0.1,0.3,0.1,0.4,0.2
			c0,0,0.1,0.1,0.1,0.1c0,0.3,0.2,0.3,0.4,0.4c0.1,0,0.2,0,0.3,0.1c0.2,0.1,0.3,0.1,0.5,0.3c0.2,0.1,0.4,0.1,0.5-0.1
			c0.1-0.1,0.1-0.2,0-0.3c0-0.1,0-0.3,0.1-0.4c0.2-0.1,0.4-0.2,0.6-0.2c0.1,0,0.3,0,0.4,0.1c0.1,0.2,0.4,0.2,0.6,0.3
			c0.1,0,0.2,0,0.2,0.1c0.1,0.1,0.1,0.1,0.2,0.1c0.2,0,0.4,0.1,0.6,0.1c0.1,0,0.3,0.1,0.4,0.1c0.2,0.1,0.4,0,0.6-0.1
			c0.2-0.2,0.5-0.2,0.7,0c0.2,0.1,0.3,0.1,0.5,0.1c0.2,0,0.4-0.1,0.5-0.3c0-0.1,0.1-0.1,0.1-0.2c0.1-0.3,0.2-0.6,0.3-0.8
			c0-0.1,0.1-0.2,0.1-0.2c0-0.2,0-0.4,0-0.6c0-0.1,0-0.1-0.1-0.1c-0.2-0.1-0.4-0.1-0.6,0c-0.2,0.2-0.5,0.2-0.8,0
			c-0.1-0.1-0.2-0.1-0.3-0.1c-0.1-0.1-0.2,0-0.3,0.1c0,0.1-0.1,0.1-0.2,0.1c-0.1,0-0.2,0-0.3-0.1c0,0,0,0-0.1-0.1
			c-0.1-0.1-0.2-0.1-0.3,0c0,0,0,0.1-0.1,0.1c0-0.2-0.1-0.2-0.2-0.3c-0.1,0-0.1-0.1-0.1-0.1c0-0.1,0-0.2-0.1-0.2
			c-0.1-0.1-0.2-0.2-0.3-0.2c0-0.1,0.1-0.2,0-0.4c0,0,0,0,0,0c0-0.1,0-0.2,0-0.3c0.1-0.2,0-0.3-0.2-0.3c0,0,0,0,0,0
			c-0.1,0-0.1,0-0.2,0c-0.1,0-0.1,0-0.2,0.1c0,0-0.1,0-0.1,0.1c0,0.1,0,0.2-0.1,0.2c-0.1,0-0.1,0-0.2-0.1c-0.1,0-0.2,0-0.2,0.1
			c0,0.1,0,0.1,0.1,0.2c0.1,0.1,0.2,0.3,0.3,0.4c0.1,0.1,0.1,0.2,0.2,0.4c-0.1,0.1-0.2,0-0.2,0c-0.1,0-0.1,0-0.2,0
			c-0.1,0.1-0.2,0.2-0.2,0.3c0,0,0,0.1,0,0.1c-0.1,0-0.2-0.1-0.3-0.1c-0.1,0-0.1-0.1-0.2-0.2c0-0.1,0-0.1-0.1-0.2
			c0-0.1-0.1-0.1,0-0.2c0-0.1,0-0.1-0.1-0.1c-0.1,0-0.1,0-0.1,0.1c0,0,0,0,0,0c0,0,0-0.1,0-0.1c0-0.2,0-0.3-0.2-0.4
			c-0.1,0-0.1-0.1-0.1-0.2c0,0,0-0.1-0.1-0.1c0-0.1,0-0.2,0-0.3c0-0.1,0-0.1,0.1-0.2c0-0.1,0-0.2-0.1-0.2c-0.1-0.1-0.1-0.1-0.2-0.2
			c-0.2-0.1-0.4-0.2-0.5-0.2c-0.1,0-0.2-0.1-0.2-0.2c0-0.1-0.1-0.1-0.1-0.2c-0.1-0.1-0.2-0.1-0.2-0.2c0,0-0.1-0.1-0.1-0.1
			c-0.1-0.1-0.2-0.1-0.3-0.3c0-0.1-0.1-0.1-0.1-0.1c-0.1,0-0.2,0-0.2,0.1c-0.1,0.1-0.1,0.3-0.1,0.4c0,0.1,0.1,0.2,0.2,0.2
			c0.1,0.1,0.2,0.2,0.2,0.3c0,0.3,0.2,0.4,0.5,0.4c0.1,0,0.2,0,0.2,0.1c0,0.1,0.1,0.1,0.1,0.2c0.2,0.1,0.3,0.2,0.5,0.3
			c0,0,0.1,0.1,0.1,0.1c0,0,0,0.1-0.1,0.1c0,0-0.1-0.1-0.1-0.1c-0.1-0.1-0.3-0.1-0.4,0c-0.1,0.1-0.1,0.2,0,0.3
			c0.1,0.1,0.1,0.1,0,0.2c-0.1,0.1-0.1,0.1-0.1,0.2c-0.1,0.1-0.1,0.2-0.3,0.2c-0.1,0-0.2,0.1-0.2,0.2c0,0,0,0.1,0,0.2
			c0,0.1-0.1,0.2-0.2,0.1c-0.1,0-0.1-0.1-0.2-0.1c-0.1-0.1-0.2-0.1-0.4-0.2c-0.1,0-0.1-0.1-0.1-0.2c0.1,0,0.2,0,0.3,0
			c0.2,0.1,0.4,0,0.6,0c0.2,0,0.3-0.1,0.3-0.2c0.1-0.2,0.1-0.4-0.1-0.6c0,0-0.1-0.1-0.1-0.1C16.2,21,16,21,15.9,20.8
			c0,0-0.1,0-0.1,0c-0.1,0-0.2-0.1-0.3-0.2c-0.1-0.1-0.2-0.2-0.3-0.3c-0.1-0.1-0.2-0.2-0.2-0.4c0-0.1-0.1-0.2-0.2-0.3
			c-0.1-0.1-0.3-0.1-0.4,0c0,0-0.1,0.1-0.1,0.1c-0.2,0-0.3,0.1-0.4,0.2c-0.1,0.1-0.2,0.1-0.3,0c-0.1-0.1-0.2-0.1-0.3-0.1
			c-0.3-0.1-0.5,0-0.5,0.3c0,0.1-0.1,0.2-0.2,0.3c-0.1,0.1-0.3,0.1-0.4,0.1c-0.1,0-0.2,0-0.2,0.1c-0.1,0.1-0.1,0.1-0.2,0.2
			c-0.1,0.1-0.2,0.1-0.2,0.2c-0.1,0.1-0.1,0.2-0.1,0.3c0,0,0,0.1,0,0.1c-0.1,0.1-0.3,0.2-0.3,0.3c0,0-0.1,0-0.1,0.1
			c-0.1,0-0.2,0.1-0.2,0.1c-0.1,0.1-0.3,0.2-0.4,0.1c-0.2,0-0.4-0.1-0.5,0c-0.1,0.1-0.2,0.2-0.2,0.4c0,0.2,0.1,0.2,0.3,0.2
			c0.1,0,0.3,0,0.4,0.1c0.2,0.1,0.3,0.1,0.4,0c0.1-0.1,0.2-0.1,0.3-0.1c0.1,0,0.2-0.1,0.2-0.1c0.1,0,0.3-0.1,0.4-0.1
			c0.3,0,0.5-0.1,0.8-0.1c0.1,0,0.3,0,0.4,0.1c0.1,0,0.2,0,0.2,0c0.1,0,0.2-0.1,0.4,0c0.1,0,0.3,0,0.4,0.1c0.1,0,0.2,0,0.2,0
			c0.1,0,0.2-0.1,0.2-0.1c0.1,0,0.1,0,0.2,0c0.1,0.1,0.2,0.1,0.3,0.2c0,0,0,0.1,0,0.1c-0.1,0.1-0.2,0.3-0.1,0.4
			c0.1,0.1,0,0.2-0.1,0.3c-0.1,0-0.1,0.1-0.2,0.1c0,0-0.1,0.1-0.1,0.1c-0.1,0.1,0,0.2,0.1,0.2C14.4,23.8,14.5,23.8,14.5,23.8z
			 M25.4,31.6c0,0.1,0.1,0.2,0.2,0.3c0.1,0.1,0.3,0.2,0.4,0.3c0,0,0.1,0.1,0.1,0.1c0.1,0.1,0.2,0.2,0.3,0.2c0.1,0.1,0.1,0.1,0.2,0.1
			c0.1,0,0.1,0,0.1-0.1c0-0.1,0-0.2,0-0.4c0,0,0-0.1,0-0.2c0-0.1,0-0.2-0.1-0.3c0-0.1,0-0.2,0-0.2c0-0.1,0-0.2,0-0.3
			c-0.1-0.2-0.2-0.4-0.3-0.6c-0.1-0.1-0.2-0.3-0.3-0.5c-0.1-0.3-0.2-0.5-0.5-0.6c-0.1,0-0.1-0.1-0.2-0.2C25,29.3,25,29.1,25,28.9
			c0-0.1,0-0.1,0-0.2c-0.1-0.3-0.2-0.5-0.5-0.7c-0.1,0-0.1-0.1-0.2-0.2c0-0.2-0.1-0.4-0.3-0.5c0,0,0-0.1-0.1-0.1
			c-0.2-0.2-0.3-0.5-0.5-0.7c-0.1-0.1-0.2-0.1-0.3-0.1c0,0-0.1,0-0.2,0c-0.2,0-0.2,0.1-0.1,0.3c0,0.1,0.1,0.2,0.1,0.2
			c0.1,0.1,0.1,0.2,0.2,0.4c0.1,0.2,0.2,0.3,0.3,0.5c0,0.1,0.1,0.1,0.1,0.2c0,0.1,0.1,0.1,0.1,0.2c0,0.2,0.1,0.4,0.2,0.5
			c0.2,0.1,0.3,0.2,0.3,0.4c0,0,0,0.1,0.1,0.1c0,0.1,0,0.1,0,0.2c0,0.2,0,0.4,0,0.6c0,0.1,0.1,0.2,0.1,0.3c0.1,0.1,0.2,0.1,0.3,0.2
			c0,0,0.1,0.1,0.1,0.1c0.1,0.2,0.2,0.4,0.2,0.6C25.1,31.5,25.1,31.6,25.4,31.6z M22.3,19.3c0,0,0-0.1,0-0.1c0-0.1,0-0.1-0.1-0.2
			c-0.1,0-0.2-0.1-0.4-0.1c-0.1-0.1-0.2-0.1-0.3,0c-0.1,0.1-0.1,0.1-0.2,0.2c-0.1,0.1-0.1,0.1-0.2,0.2c0,0.1-0.1,0.1-0.1,0.2
			C21,19.6,21,19.7,21,19.9c0,0.1,0,0.2-0.1,0.2c-0.1,0.1-0.2,0.2-0.2,0.3c0,0.3,0.2,0.5,0.5,0.6c0.2,0,0.3,0,0.5,0.1
			c0.1,0,0.2,0,0.3-0.1c0.3-0.2,0.6-0.3,0.9-0.3c0.1,0,0.1,0,0.2,0c0.1,0,0.1,0,0.2,0c0.2,0.1,0.3,0.1,0.5,0.2c0,0,0,0,0.1,0
			c0.1,0,0.1,0,0.2,0c0.2,0,0.4,0.1,0.6,0c0.1,0,0.2,0,0.3,0c0.2,0,0.4,0,0.5-0.2c0.1-0.1,0.1-0.2,0.1-0.3c0-0.2-0.2-0.3-0.4-0.4
			c-0.2-0.1-0.3-0.2-0.5-0.3c-0.1-0.1-0.3-0.2-0.4-0.2c-0.1,0-0.3-0.1-0.4-0.2c-0.1,0-0.1-0.1-0.2,0c-0.2,0-0.4,0-0.6,0.1
			c-0.1,0-0.1,0.1-0.2,0.1c-0.1,0.1-0.2,0.1-0.3-0.1C22.6,19.4,22.5,19.4,22.3,19.3C22.4,19.3,22.4,19.3,22.3,19.3z M29.1,20.8
			c0.1,0,0.2,0,0.2,0c0.1,0,0.1,0,0.1,0c0-0.1,0-0.1,0-0.2c-0.1-0.1-0.1-0.2-0.2-0.2c0,0,0,0-0.1-0.1c-0.1,0-0.1,0-0.2,0.1
			c0,0.1,0,0.1-0.1,0.2c-0.1-0.1-0.1-0.2-0.1-0.3c0-0.2,0-0.2-0.2-0.3c-0.1,0-0.3-0.1-0.3-0.3c-0.1-0.1-0.2-0.2-0.2-0.2
			c0,0-0.1-0.1-0.1-0.1c0.1-0.1,0.1-0.1,0.2-0.2c0.1-0.1,0.1-0.2,0.3-0.2c0.2,0,0.2-0.1,0.2-0.3c0-0.1,0-0.2-0.1-0.2
			c0-0.1-0.1-0.1-0.2-0.1c-0.1,0-0.1,0-0.2,0c-0.1,0-0.1-0.1-0.2,0c-0.2,0.1-0.4,0.2-0.5,0.4c0,0.1-0.1,0.1-0.2,0.1
			c-0.2,0-0.3,0.3-0.3,0.4c0,0,0,0.1,0,0.1c0,0,0.1,0.1,0.1,0.1c0,0,0.1,0.1,0.1,0.1c0,0.3,0.2,0.5,0.5,0.7c0.1,0,0.1,0.1,0.1,0.1
			c0.1,0.1,0.2,0.2,0.3,0.3c0,0,0,0.1,0.1,0.1c-0.1,0.1-0.1,0.2-0.1,0.3c0,0.1,0,0.1,0,0.2c-0.1,0.1,0,0.3,0,0.4
			c0,0.2,0.2,0.3,0.4,0.3c0.1,0,0.1,0,0.2,0c0.1,0.1,0.3,0.1,0.4,0.2c0.1,0,0.2,0,0.3,0c0.1,0,0.2-0.1,0.4-0.1
			c0.1,0,0.2-0.1,0.1-0.2c0-0.2-0.1-0.3-0.1-0.5c0-0.1-0.1-0.2-0.1-0.2c-0.1-0.1-0.2-0.2-0.3-0.3C29.1,21.1,29.1,21,29.1,20.8z
			 M18.3,13.8C18.3,13.8,18.4,13.8,18.3,13.8c0.2,0.1,0.2,0.2,0.3,0.3c0.1,0.1,0.1,0.2,0,0.2c-0.1,0.1-0.2,0.2-0.3,0.2
			c-0.2,0.1-0.3,0.2-0.3,0.4c0,0.1,0,0.1,0,0.2c-0.1,0.2-0.2,0.2-0.4,0.2c-0.1,0-0.3,0-0.3,0.2c0,0.1-0.1,0.1-0.2,0.1
			c-0.1,0-0.2,0-0.3-0.1c0,0.1-0.1,0.1-0.2,0.3c0.2-0.1,0.3,0.1,0.4,0.2c0.1,0,0.2,0,0.3,0c0.1,0,0.2-0.1,0.3-0.1
			c0.1,0,0.3-0.1,0.4-0.1c0.1,0,0.2,0,0.3,0.1c0,0.1,0.1,0.1,0.2,0c0,0,0.1,0,0.1-0.1c0.1-0.1,0.1-0.1,0.2-0.1
			c0.1,0,0.2-0.1,0.2-0.3c0,0,0-0.1,0-0.1c0-0.2,0.1-0.3,0.2-0.4c0.1-0.1,0.1-0.1,0.1-0.2c0-0.1,0.1-0.2,0.2-0.3c0,0,0.1,0,0.2,0
			c0.1,0,0.2-0.1,0.3-0.1c0,0,0,0,0,0c-0.2,0-0.3,0.1-0.5,0c-0.1-0.1-0.2-0.2-0.2-0.3c0-0.2,0-0.4,0-0.6c0,0,0-0.1,0-0.1
			c0-0.1,0-0.1,0.1-0.1c0.1,0,0.1-0.1,0.2-0.1c0.1,0,0.1-0.1,0.2-0.1c0.1-0.1,0.3-0.1,0.4-0.3c-0.1,0-0.3,0-0.4,0
			c-0.1,0-0.3,0.1-0.3,0.2c0,0.1-0.1,0.2-0.2,0.2c-0.1,0-0.2,0.1-0.3,0.1C18.7,13.2,18.5,13.4,18.3,13.8z M24,18.9
			C24,18.9,24,18.9,24,18.9c0-0.1,0-0.1,0-0.1c0,0,0.1-0.1,0-0.1c0,0-0.1,0-0.1,0c-0.2,0-0.3,0.1-0.5,0.2c-0.1,0-0.2,0.1-0.3,0.2
			c-0.1,0.1-0.1,0.1,0,0.2c0.1,0.1,0.1,0.2,0.2,0.1c0.1,0,0.2,0,0.3,0c0.2,0,0.2,0,0.3-0.2C24,19.1,24,19,24,18.9z M19.4,14.8
			c0.1,0.2,0.2,0.2,0.3,0.2c0.1,0,0.1,0,0.2-0.1c0-0.1,0-0.1-0.1-0.2C19.7,14.6,19.6,14.7,19.4,14.8z M20.1,14.2
			C20.1,14.2,20.1,14.2,20.1,14.2c0.2,0,0.5,0,0.7,0.1c0,0,0.1,0,0.1,0c0.1,0,0.1-0.1,0.2-0.1C20.9,14,20.3,14.1,20.1,14.2z
			 M20.8,21.3c0.1,0,0.2-0.1,0.2-0.1c0-0.1-0.1-0.1-0.1-0.1c0,0-0.1,0-0.1,0c-0.1,0-0.1,0.1-0.1,0.1c0,0,0,0.1,0.1,0.1
			C20.8,21.3,20.8,21.3,20.8,21.3z M29.5,11.4c0,0.2,0,0.2,0.1,0.2C29.6,11.5,29.6,11.5,29.5,11.4z"/>
		<path class="st5" d="M16,7.6c0.3,0,0.3,0,0.4,0.1c-0.2,0-0.3,0.1-0.5,0.2C15.9,7.9,16.1,8,16.2,8c0.1,0.1,0.1,0.2,0.2,0.3
			c0,0,0,0,0,0c0.1,0,0.2,0,0.3,0.1c0.1,0.1,0.2,0.2,0.2,0.4c-0.1,0-0.3,0.1-0.4,0.1c-0.2,0-0.3,0.1-0.5,0.1c-0.3,0-0.5,0.2-0.7,0.4
			c-0.1,0.1-0.2,0.2-0.3,0.2c0,0-0.1,0.1-0.1,0c0,0-0.1,0-0.1,0.1c0,0,0,0.1,0,0.1c0,0,0,0,0,0c-0.2,0.1-0.3,0.1-0.5,0.1
			c-0.1,0-0.1,0.1-0.2,0.1c-0.1,0-0.1,0.1-0.2,0.1c-0.1,0-0.2,0-0.3,0.1c-0.2,0.1-0.3,0.2-0.4,0.4c-0.2,0.2-0.4,0.3-0.6,0.3
			c-0.1,0-0.3,0.1-0.4,0.1c-0.1,0-0.2,0.1-0.3,0c-0.2,0-0.4,0.1-0.5,0c-0.1,0-0.2,0.1-0.3,0.1c-0.2,0.1-0.4,0.2-0.6,0.2
			c-0.1,0-0.2,0-0.3,0c-0.1,0-0.2,0.1-0.3,0.1c-0.2,0.2-0.5,0.3-0.8,0.5c-0.2,0.1-0.3,0.3-0.5,0.4c-0.1,0.1-0.2,0.1-0.3,0.2
			c0,0-0.1,0.1-0.2,0.1c0-0.1-0.1-0.2-0.1-0.3c0-0.1,0-0.1,0-0.2c0.1-0.1,0.1-0.2,0-0.3c0,0-0.1,0.1-0.1,0.1
			c-0.4,0.4-0.8,0.8-1.2,1.2c-0.2,0.2-0.4,0.4-0.5,0.7c-0.1,0.1-0.1,0.1-0.2,0.2c-0.3,0.3-0.5,0.6-0.8,0.9c-0.2,0.2-0.3,0.5-0.5,0.7
			c-0.1,0.1-0.1,0.2-0.2,0.3c0,0-0.1,0-0.1-0.1c-0.1,0.1-0.2,0.3-0.3,0.4C4,16.4,4,16.4,4.1,16.2c0.1-0.2,0.2-0.4,0.3-0.5
			c0.2-0.2,0.4-0.5,0.5-0.8c0-0.1,0.1-0.1,0.1-0.2c0.1-0.1,0.1-0.1,0.1-0.2c0,0,0-0.1,0.1-0.1c0.7-0.9,1.5-1.8,2.4-2.6
			c0.2-0.2,0.5-0.4,0.7-0.5c0,0,0.1,0,0.1-0.1C8.6,11.1,8.8,11,9,10.8c0.8-0.6,1.6-1.1,2.4-1.6c0.4-0.2,0.7-0.4,1.1-0.6
			c0.1-0.1,0.2-0.1,0.3-0.1c0.1,0,0.2-0.1,0.2-0.2c0.1-0.1,0.1-0.1,0.2-0.1C14,8,14.7,7.7,15.5,7.5c0.1,0,0.1,0,0.2,0
			C15.8,7.4,15.9,7.4,16,7.6z"/>
		<path class="st5" d="M1.1,29.6c0,0.1,0,0.3,0.1,0.4c0.2,1.2,0.4,2.5,0.8,3.7c0.1,0.4,0.3,0.7,0.4,1c0.1,0.2,0.2,0.4,0.3,0.5
			c0,0,0.1,0.1,0.1,0.1c0.1,0.2,0.2,0.4,0.4,0.6c0.1,0.1,0.2,0.3,0.3,0.4c0,0,0.1,0.1,0.1,0.1c0.2,0.4,0.4,0.7,0.5,1.1
			c0,0.1,0.1,0.2,0.1,0.3c0.1,0.5,0.3,0.9,0.6,1.3c0.2,0.2,0.3,0.5,0.5,0.7c-0.1,0-0.1,0-0.2-0.1c-0.4-0.2-0.4-0.2-0.7-0.6
			c-1.5-2.2-2.5-4.7-3.1-7.3c-0.1-0.3-0.1-0.6-0.1-0.8c0,0,0-0.1,0-0.1c0.1-0.3,0-0.7,0-1C1.1,29.8,1.1,29.7,1.1,29.6
			C1.1,29.6,1.1,29.6,1.1,29.6z"/>
		<path class="st5" d="M41.4,31.9c0-0.3,0.1-0.5,0.3-0.8c0,0.1,0,0.2,0,0.4c-0.1,0.9-0.4,1.7-0.6,2.6c0,0.1,0,0.2-0.1,0.2
			c0,0,0,0.1,0,0.1c-0.1,0.4-0.2,0.7-0.4,1.1c-0.1,0.2-0.1,0.3-0.2,0.5c-0.1,0.2-0.1,0.2-0.3,0.1c0,0,0,0-0.1,0
			c0.2-0.4,0.2-0.9,0.3-1.3c-0.1,0-0.2,0-0.1-0.1c0,0,0,0,0.1,0c0,0,0,0,0,0c0-0.2,0.1-0.4,0.1-0.6c0,0,0,0,0-0.1
			c0.1-0.3,0.1-0.5,0.1-0.8c0-0.1,0-0.2,0.1-0.3c0.1-0.1,0.1-0.2,0.2-0.3c0,0,0.1,0,0.1,0c0-0.3,0.3-0.5,0.4-0.8
			C41.3,31.8,41.3,31.9,41.4,31.9z"/>
		<path class="st5" d="M18.6,46.4c1.2-0.2,2.4-0.4,3.6-0.7c0,0.2-0.1,0.3-0.2,0.3c-0.1,0.1-0.3,0.2-0.4,0.3c0,0-0.1,0.1-0.1,0.1
			c-0.2,0.1-0.4,0.2-0.6,0.3c-0.1,0-0.2,0-0.3,0.1c-0.1,0-0.1,0-0.2,0c-0.1,0-0.3,0-0.4,0c-0.1,0-0.3,0-0.4,0c-0.1,0-0.3,0.1-0.4,0
			c-0.1,0-0.3,0-0.4-0.1C18.6,46.7,18.6,46.6,18.6,46.4z"/>
		<path class="st5" d="M21.1,9.3c-0.2,0.1-0.3,0.1-0.5,0.1c0,0.1,0.1,0.1,0.1,0.2c-0.2,0.1-0.3,0.1-0.5,0c0,0,0,0,0,0
			c-0.1-0.2-0.1-0.2-0.3-0.1c-0.1,0.1-0.2,0.2-0.4,0.3c0,0-0.1,0-0.1,0c-0.1,0-0.2-0.1-0.3-0.1c0,0,0-0.1,0-0.1c0,0,0,0,0,0
			c0,0-0.1,0-0.1,0c-0.1,0-0.1,0-0.1-0.2c0-0.1,0-0.1,0-0.2c0-0.1,0-0.2,0-0.2c0.2,0,0.4,0,0.5,0.1c0,0,0.1,0,0.1,0
			c0-0.1,0.1-0.1,0.2-0.1c0,0,0.1,0,0.1,0c0.1-0.1,0.3-0.1,0.4,0c0.1,0,0.1,0,0.2,0c0.1,0,0.3,0,0.4,0C20.9,8.9,21,9,21,9
			C21,9.1,21,9.2,21.1,9.3z"/>
		<path class="st5" d="M26.4,11.1c-0.4,0.1-0.7,0-1.1-0.1c-0.1-0.1-0.1-0.1-0.1-0.2c0.1-0.2,0.1-0.4,0.2-0.5c0-0.1,0-0.2,0.1-0.3
			c0,0,0.1-0.1,0.1-0.1c0.1-0.1,0.2-0.1,0.3-0.2c0.1,0,0.2-0.1,0.3-0.1c0.1,0,0.2,0,0.3-0.1c0.1-0.1,0.1-0.1,0.3-0.1
			c0.1,0.1,0,0.3,0,0.4c0,0-0.1,0.1-0.1,0.1c-0.1,0-0.2,0.1-0.3,0.1c-0.1,0-0.2,0.1-0.3,0.2c-0.1,0.1-0.1,0.1-0.2,0.2
			c0,0.1,0,0.1,0,0.2c0.1,0,0.1,0.1,0.2,0.1C26.3,10.7,26.3,10.9,26.4,11.1z"/>
		<path class="st5" d="M12.5,11.5c0.1,0.1,0.3,0.2,0.4,0.3c0,0.1,0,0.2,0,0.3c0,0,0,0.1-0.1,0.1c-0.1,0.1-0.3,0.1-0.4,0.2
			c-0.2,0.1-0.4,0.1-0.6,0.1c-0.1,0-0.2,0-0.3-0.1c-0.1-0.1-0.2-0.1-0.2-0.1c0,0,0,0,0,0c0-0.2,0-0.4,0.1-0.5c0,0,0-0.1,0-0.1
			c0-0.1,0.2-0.3,0.3-0.2c0.1,0.1,0.3,0.1,0.5,0.1C12.3,11.6,12.4,11.6,12.5,11.5z"/>
		<path class="st5" d="M27,44c-0.1,0.1-0.2,0.2-0.3,0.4c-0.1,0.2-0.3,0.4-0.4,0.6c-0.1,0.1-0.2,0.2-0.3,0.2c0,0-0.1,0-0.1,0
			c-0.2,0.1-0.4,0-0.5-0.2c0,0,0-0.1,0-0.1c-0.1-0.2-0.1-0.2,0.1-0.3c0.4-0.2,0.9-0.4,1.3-0.6C26.9,44,26.9,44,27,44
			C27,43.9,27,44,27,44z"/>
		<path class="st5" d="M24.7,8.5c0.1,0.1,0.1,0.1,0.2,0.2c0,0,0-0.1,0.1-0.1c0.1-0.1,0.2,0,0.2,0.1c0,0.1,0,0.2,0,0.3
			c0,0.1-0.2,0.2-0.2,0.2c-0.2,0-0.4,0-0.7,0c0,0,0,0-0.1,0C24.2,8.9,24.4,8.6,24.7,8.5z"/>
		<path class="st5" d="M24,8.7c0,0.2,0,0.3,0,0.5c-0.2,0-0.4,0-0.7-0.1c0.1-0.1,0.1-0.2,0.2-0.3c0-0.1,0.1,0,0.2-0.1
			C23.8,8.7,23.9,8.7,24,8.7z"/>
		<radialGradient id="SVGID_4_" cx="25.1456" cy="11.3919" r="0.2123" gradientUnits="userSpaceOnUse">
			<stop  offset="0" style="stop-color:#FFFFFF"/>
			<stop  offset="1" style="stop-color:#000000"/>
		</radialGradient>
		<path class="st6" d="M25.3,11.5c0,0-0.1,0.1-0.1,0.1c-0.1,0-0.2,0.1-0.2,0c-0.1,0-0.1-0.1,0-0.2c0-0.1,0.1-0.1,0.1-0.2
			c0-0.1,0.1-0.1,0.2,0C25.3,11.3,25.3,11.4,25.3,11.5z"/>
		<radialGradient id="SVGID_5_" cx="25.3277" cy="8.8592" r="0.1489" gradientUnits="userSpaceOnUse">
			<stop  offset="0" style="stop-color:#FFFFFF"/>
			<stop  offset="1" style="stop-color:#000000"/>
		</radialGradient>
		<path class="st7" d="M25.4,9c-0.1,0-0.2,0-0.2,0c0-0.2,0.1-0.2,0.2-0.3C25.5,8.8,25.4,8.9,25.4,9z"/>
		<radialGradient id="SVGID_6_" cx="14.027" cy="13.7233" r="0.137" gradientUnits="userSpaceOnUse">
			<stop  offset="0" style="stop-color:#FFFFFF"/>
			<stop  offset="1" style="stop-color:#000000"/>
		</radialGradient>
		<path class="st8" d="M14.2,13.7c-0.1,0.1-0.1,0.1-0.2,0.2c0,0,0,0,0,0c0-0.1,0-0.2-0.1-0.3C14,13.6,14.1,13.6,14.2,13.7z"/>
		<radialGradient id="SVGID_7_" cx="13.2455" cy="13.1588" r="0.1363" gradientUnits="userSpaceOnUse">
			<stop  offset="0" style="stop-color:#FFFFFF"/>
			<stop  offset="1" style="stop-color:#000000"/>
		</radialGradient>
		<path class="st9" d="M13.2,13c0,0,0.1,0.1,0.2,0.1c-0.1,0.1-0.1,0.1-0.2,0.2C13.2,13.2,13.1,13.1,13.2,13C13.2,13,13.2,13,13.2,13
			z"/>
		<radialGradient id="SVGID_8_" cx="16.6577" cy="7.5805" r="0.1001" gradientUnits="userSpaceOnUse">
			<stop  offset="0" style="stop-color:#FFFFFF"/>
			<stop  offset="1" style="stop-color:#000000"/>
		</radialGradient>
		<path class="st10" d="M16.5,7.6c0.1-0.1,0.1-0.1,0.3-0.1C16.7,7.6,16.6,7.6,16.5,7.6z"/>
		<radialGradient id="SVGID_9_" cx="28.3598" cy="9.6784" r="7.024068e-02" gradientUnits="userSpaceOnUse">
			<stop  offset="0" style="stop-color:#FFFFFF"/>
			<stop  offset="1" style="stop-color:#000000"/>
		</radialGradient>
		<path class="st11" d="M28.4,9.7c0,0-0.1,0-0.1-0.1c0.1,0,0.1,0,0.1,0C28.4,9.6,28.4,9.7,28.4,9.7C28.4,9.7,28.4,9.7,28.4,9.7z"/>
		<radialGradient id="SVGID_10_" cx="28.8937" cy="43.6633" r="4.162338e-02" gradientUnits="userSpaceOnUse">
			<stop  offset="0" style="stop-color:#FFFFFF"/>
			<stop  offset="1" style="stop-color:#000000"/>
		</radialGradient>
		<path class="st12" d="M28.9,43.7C28.9,43.7,28.9,43.7,28.9,43.7C28.9,43.7,28.9,43.7,28.9,43.7C28.9,43.6,28.9,43.6,28.9,43.7
			C28.9,43.6,28.9,43.7,28.9,43.7z"/>
		<radialGradient id="SVGID_11_" cx="17.5785" cy="21.8683" r="3.9419" gradientUnits="userSpaceOnUse">
			<stop  offset="0" style="stop-color:#FFFFFF"/>
			<stop  offset="1" style="stop-color:#000000"/>
		</radialGradient>
		<path class="st13" d="M14.1,21.6c0,0,0.1,0,0.1,0c0.1,0,0.2-0.1,0.3-0.3c0-0.1,0-0.2,0.1-0.2c0-0.1,0-0.2,0-0.2c0-0.1,0-0.3,0-0.4
			c0-0.1,0.1-0.2,0-0.3c0,0-0.1,0-0.1,0c-0.1,0-0.2,0-0.2,0.2c0,0.1,0,0.2,0,0.2c0,0.1,0,0.2-0.1,0.2c0,0-0.1,0-0.1,0
			c-0.1,0-0.1,0.1-0.1,0.1c0,0.1,0,0.2-0.1,0.4C14,21.4,14,21.5,14.1,21.6z M22.3,23.5c0.1,0.1,0.2,0.1,0.3,0c0.1,0,0.2-0.1,0.2-0.2
			C22.6,23.3,22.4,23.4,22.3,23.5z M19.1,23.3C19.2,23.3,19.2,23.4,19.1,23.3c0.2,0,0.3,0,0.4,0.1c0.1,0.1,0.2,0.1,0.3,0
			C19.6,23.4,19.4,23.3,19.1,23.3C19.2,23.3,19.2,23.3,19.1,23.3z M12.3,21.1c0,0.1,0,0.2,0.1,0.2c0.1,0,0.1,0,0.1-0.1
			C12.5,21.1,12.4,21.1,12.3,21.1z"/>
		<path class="st14" d="M14.1,21.6C14,21.5,14,21.4,14,21.3c0-0.1,0.1-0.2,0.1-0.4c0-0.1,0-0.1,0.1-0.1c0,0,0.1,0,0.1,0
			c0.1-0.1,0.1-0.1,0.1-0.2c0-0.1,0-0.2,0-0.2c0-0.1,0-0.2,0.2-0.2c0,0,0.1,0,0.1,0c0,0.1,0,0.2,0,0.3c-0.1,0.1-0.1,0.3,0,0.4
			c0,0.1,0,0.2,0,0.2c0,0.1-0.1,0.2-0.1,0.2c0,0.2-0.1,0.2-0.3,0.3C14.2,21.6,14.2,21.6,14.1,21.6z"/>
		<path class="st15" d="M22.3,23.5c0.1-0.2,0.3-0.2,0.6-0.2c0,0.1-0.1,0.2-0.2,0.2C22.5,23.6,22.4,23.6,22.3,23.5z"/>
		<path class="st16" d="M19.1,23.3C19.2,23.3,19.2,23.3,19.1,23.3c0.2,0,0.4,0,0.7,0.1c-0.1,0.1-0.2,0.1-0.3,0
			C19.4,23.4,19.3,23.4,19.1,23.3C19.2,23.4,19.2,23.3,19.1,23.3z"/>
		<radialGradient id="SVGID_12_" cx="12.3828" cy="21.1921" r="9.448086e-02" gradientUnits="userSpaceOnUse">
			<stop  offset="0" style="stop-color:#FFFFFF"/>
			<stop  offset="1" style="stop-color:#000000"/>
		</radialGradient>
		<path class="st17" d="M12.3,21.1c0.1,0,0.2,0,0.2,0.1c0,0.1,0,0.1-0.1,0.1C12.3,21.3,12.3,21.2,12.3,21.1z"/>
		<radialGradient id="SVGID_13_" cx="18.3969" cy="14.9176" r="0.1504" gradientUnits="userSpaceOnUse">
			<stop  offset="0" style="stop-color:#FFFFFF"/>
			<stop  offset="1" style="stop-color:#000000"/>
		</radialGradient>
		<path class="st18" d="M18.4,14.7c0.1,0,0.1,0.1,0.1,0.1c-0.1,0.1-0.1,0.1-0.2,0.2C18.2,15,18.3,14.9,18.4,14.7
			C18.3,14.8,18.3,14.8,18.4,14.7z"/>
	</g>
	<g>
		<radialGradient id="SVGID_14_" cx="17.7807" cy="22.2909" r="19.203" gradientUnits="userSpaceOnUse">
			<stop  offset="0" style="stop-color:#39B4DC"/>
			<stop  offset="1" style="stop-color:#3299CD"/>
		</radialGradient>
		<path class="st19" d="M33.6,10.6c0,2.4,0,4.7,0,7c-4.1,0-8.3,0-12.4,0c0,8.9,0,17.8,0,26.7c-2.2,0-4.3,0-6.5,0
			c0-8.9,0-17.8,0-26.7c-4.2,0-8.4,0-12.7,0c0-2.3,0-4.7,0-7c4.2,0,8.4,0,12.7,0c0-3.5,0-6.9,0-10.4c2.2,0,4.3,0,6.5,0
			c0,3.5,0,6.9,0,10.4C25.3,10.6,29.4,10.6,33.6,10.6z"/>
	</g>
	<g>
		<path d="M32.9,10.6c0,0.2,0,0.4,0,0.6c-3.9,0-7.9,0-11.8,0c0-0.2,0-0.4,0-0.6C25.1,10.6,29,10.6,32.9,10.6z"/>
	</g>
	<g>
		<path d="M15.2,43.7c-0.2,0-0.4,0-0.6,0c0-8.7,0-17.4,0-26.1c0.2,0,0.4,0,0.6,0C15.2,26.3,15.2,35,15.2,43.7z"/>
	</g>
	<g>
		<path d="M21.1,0.2c0,0.2,0,0.4,0,0.6c-2,0-3.9,0-5.9,0c0,3.5,0,6.9,0,10.4c-4.2,0-8.4,0-12.7,0c0,2.2,0,4.3,0,6.4
			c-0.2,0-0.4,0-0.6,0c0-2.3,0-4.7,0-7c4.2,0,8.4,0,12.7,0c0-3.5,0-6.9,0-10.4C16.8,0.2,19,0.2,21.1,0.2z"/>
		<path d="M15.2,44.3c-0.2,0-0.4,0-0.6,0c0-8.7,0-17.4,0-26.1c0.2,0,0.4,0,0.6,0C15.2,27,15.2,35.7,15.2,44.3z"/>
		<path d="M33.6,10.6c0,0.2,0,0.4,0,0.6c-3.9,0-7.9,0-11.8,0c0-0.2,0-0.4,0-0.6C25.7,10.6,29.7,10.6,33.6,10.6z"/>
	</g>
	<g>
		<radialGradient id="SVGID_15_" cx="21.7691" cy="28.8264" r="19.8334" gradientUnits="userSpaceOnUse">
			<stop  offset="0" style="stop-color:#000000"/>
			<stop  offset="2.914663e-02" style="stop-color:#010406"/>
			<stop  offset="1" style="stop-color:#3299CD"/>
		</radialGradient>
		<path class="st20" d="M34.1,11c0.2,0.1,0.4,0.1,0.6,0.2c1,0.3,2,0.8,2.9,1.4c0.7,0.5,1.4,1.1,2,1.8c0.5,0.7,1,1.4,1.4,2.1
			c0.8,1.4,1.4,2.9,1.9,4.5c0.3,0.9,0.4,1.7,0.5,2.6c0,0.8,0,1.5-0.1,2.3c-0.2,1.7-0.8,3.3-1.6,4.8c-0.9,1.8-2.1,3.4-3.4,4.9
			c-1.5,1.7-3.2,3.2-5.1,4.6c-1.9,1.4-3.9,2.5-6.1,3.5c-2.1,1-4.4,1.7-6.7,2.3c-1.1,0.2-2.2,0.4-3.4,0.5c-0.9,0.1-1.7,0.1-2.6,0.1
			c-1.4-0.1-2.7-0.2-4-0.6c-1.6-0.4-3.1-1.1-4.4-2.2c-0.7-0.5-1.2-1.1-1.8-1.8c-1.2-1.4-2.2-2.9-3-4.5c-0.5-0.9-0.8-1.9-1-2.9
			c-0.1-0.7-0.2-1.4-0.1-2.1c0.1-1.2,0.3-2.4,0.7-3.5c0,0,0-0.1,0-0.1c0.1,0,0,0,0.1,0c0,0.2,0,0.4,0,0.5c0,0.1,0,0.2,0,0.3
			c0,0.2,0,0.4-0.1,0.6c-0.1,0.6-0.2,1.2-0.2,1.9c0,0.4,0,0.9,0,1.3c0,0.4,0.1,0.8,0.2,1.1c0.1,0.5,0.3,0.9,0.5,1.4
			c0.3,0.6,0.6,1.1,1,1.6c0.3,0.4,0.7,0.7,1,1.1c0.7,0.5,1.4,1,2.1,1.3c1.1,0.5,2.3,0.8,3.6,1c1.3,0.2,2.6,0.2,3.8,0.1
			c2.4-0.2,4.7-0.7,7-1.4c2.6-0.9,5.2-2,7.5-3.4c2.1-1.3,4.1-2.7,5.9-4.4c1.6-1.4,3-3,4.1-4.7c0.9-1.3,1.6-2.7,2.2-4.1
			c0.4-1.2,0.7-2.5,0.7-3.8c0-0.8-0.1-1.6-0.3-2.4c-0.1-0.5-0.3-1-0.6-1.5c-0.3-0.4-0.5-0.8-0.8-1.2c-0.4-0.5-0.9-0.9-1.4-1.3
			c-0.5-0.4-1.1-0.7-1.7-1c-0.1-0.1-0.3-0.1-0.5-0.2c-0.1,0-0.2-0.1-0.3-0.2C34.5,11.4,34.3,11.2,34.1,11
			C34.1,11.1,34.1,11.1,34.1,11C34.1,11,34.1,11,34.1,11z"/>
	</g>
	<g>
		<radialGradient id="SVGID_16_" cx="20.5378" cy="26.408" r="17.7699" gradientUnits="userSpaceOnUse">
			<stop  offset="0" style="stop-color:#39B4DC"/>
			<stop  offset="1" style="stop-color:#3299CD"/>
		</radialGradient>
		<path class="st21" d="M34.5,11.4c0.3,0.1,0.6,0.2,0.9,0.4c0.8,0.3,1.5,0.7,2.2,1.3c0.6,0.4,1.1,0.9,1.5,1.5
			c0.1,0.1,0.2,0.3,0.3,0.4c0.5,0.7,0.8,1.4,1,2.2c0.2,0.9,0.3,1.9,0.2,2.9c0,0.5-0.1,1.1-0.2,1.6c-0.1,0.4-0.2,0.8-0.3,1.2
			c-0.1,0.3-0.2,0.6-0.3,0.9c-0.1,0.2-0.2,0.4-0.2,0.5c-0.1,0.3-0.3,0.6-0.4,1c-0.1,0.2-0.2,0.3-0.3,0.5c-0.2,0.3-0.3,0.6-0.5,0.8
			c-0.1,0.2-0.3,0.4-0.4,0.7c-0.1,0.1-0.1,0.2-0.2,0.3c-0.2,0.3-0.4,0.5-0.5,0.8c-0.1,0.1-0.2,0.3-0.3,0.4c-0.1,0.2-0.2,0.3-0.4,0.5
			c-0.2,0.2-0.3,0.4-0.5,0.6c-0.1,0.1-0.2,0.2-0.3,0.4c0,0.1-0.1,0.1-0.1,0.2c-0.2,0.2-0.4,0.4-0.6,0.6c-0.3,0.3-0.6,0.6-0.9,0.9
			c-0.2,0.2-0.4,0.4-0.6,0.6c-0.2,0.1-0.3,0.3-0.5,0.4c-0.2,0.2-0.4,0.3-0.6,0.5c-0.1,0.1-0.2,0.1-0.3,0.2c-0.3,0.2-0.5,0.4-0.8,0.6
			c-0.1,0.1-0.1,0.1-0.2,0.1c-0.4,0.3-0.9,0.6-1.3,0.9c-0.1,0.1-0.3,0.2-0.4,0.3c-0.2,0.1-0.4,0.3-0.7,0.4c-0.3,0.2-0.6,0.4-0.9,0.6
			c-0.1,0.1-0.2,0.1-0.4,0.2c0,0-0.1,0-0.1,0.1c-0.4,0.2-0.8,0.4-1.2,0.6c-0.2,0.1-0.4,0.2-0.5,0.3c-0.4,0.2-0.8,0.4-1.2,0.6
			c-0.2,0.1-0.3,0.2-0.5,0.2c-0.3,0.1-0.6,0.3-0.9,0.4c-0.5,0.2-1.1,0.4-1.6,0.6c-0.7,0.3-1.5,0.5-2.3,0.7c-1.2,0.4-2.4,0.6-3.6,0.8
			c-0.3,0.1-0.6,0.1-1,0.2c-0.2,0-0.5,0-0.7,0.1c-0.8,0.1-1.7,0.1-2.5,0.1c-1.2,0-2.4-0.1-3.5-0.4c-0.1,0-0.3,0-0.4-0.1
			c-0.2,0-0.3-0.1-0.5-0.1c-0.3-0.1-0.7-0.2-1-0.3c-0.2-0.1-0.3-0.1-0.5-0.2c-0.2-0.1-0.3-0.1-0.5-0.2c-0.1,0-0.2-0.1-0.3-0.2
			c-0.2-0.1-0.5-0.2-0.7-0.4c-0.7-0.5-1.4-1.1-1.9-1.7c-0.4-0.5-0.7-1-1-1.6c-0.3-0.6-0.4-1.2-0.6-1.8c-0.1-0.4-0.1-0.8-0.1-1.3
			c0-0.7,0-1.4,0.1-2.1c0.1-0.5,0.2-0.9,0.3-1.4c0,0,0-0.1,0.1-0.1c0,0,0,0,0.1-0.1c0,0.2,0,0.4,0,0.6c-0.1,0.4-0.2,0.9-0.2,1.3
			c0,0.1,0,0.3,0,0.4c0,0.6-0.1,1.2,0,1.8c0,0.5,0.2,1.1,0.3,1.6c0.1,0.3,0.2,0.7,0.4,1c0.5,1.2,1.4,2.1,2.4,2.8
			c1,0.7,2.1,1.2,3.2,1.5c0.9,0.3,1.8,0.4,2.7,0.5c0.7,0.1,1.4,0.1,2.2,0.1c0.8,0,1.7-0.1,2.5-0.2c3.5-0.4,6.7-1.5,9.9-3
			c2.9-1.4,5.6-3.1,8.1-5.2c1.6-1.4,3.1-2.9,4.4-4.6c1-1.3,1.9-2.7,2.6-4.3c0.4-1,0.8-2,1-3.1c0.1-0.6,0.2-1.3,0.1-1.9
			c0-0.9-0.2-1.9-0.5-2.8c-0.1-0.2-0.2-0.4-0.3-0.6c-0.3-0.5-0.6-0.9-0.9-1.3c-0.4-0.5-0.9-0.9-1.4-1.3c-0.5-0.4-1.1-0.7-1.7-1
			c-0.1,0-0.2-0.1-0.3-0.1C34.9,11.8,34.7,11.6,34.5,11.4C34.5,11.4,34.5,11.4,34.5,11.4z"/>
		<radialGradient id="SVGID_17_" cx="25.4552" cy="38.8048" r="12.7527" gradientUnits="userSpaceOnUse">
			<stop  offset="0" style="stop-color:#39B4DC"/>
			<stop  offset="1" style="stop-color:#3299CD"/>
		</radialGradient>
		<path class="st22" d="M41.7,30.9c-0.2,0.3-0.3,0.6-0.5,0.8c-1,1.7-2.2,3.2-3.5,4.6c-1.7,1.8-3.7,3.4-5.8,4.8
			c-3.1,2-6.4,3.5-9.9,4.5c-1.3,0.4-2.7,0.6-4.1,0.8c-1.1,0.1-2.3,0.2-3.4,0.2c-1.6-0.1-3.1-0.3-4.6-0.7c-0.2-0.1-0.5-0.2-0.7-0.2
			c0,0,0,0,0,0c0.2,0,0.4,0.1,0.6,0.1c0.7,0.1,1.4,0.3,2.2,0.4c0.5,0.1,1.1,0.1,1.6,0.2c0.9,0.1,1.8,0.1,2.7,0
			c0.6,0,1.3-0.1,1.9-0.2c0.2,0,0.4-0.1,0.7-0.1c0.5,0,1-0.2,1.5-0.3c0.6-0.1,1.2-0.3,1.8-0.5c0.3-0.1,0.6-0.2,0.9-0.3
			c0.2-0.1,0.4-0.2,0.6-0.2c0.3-0.1,0.5-0.2,0.8-0.2c0.3-0.1,0.6-0.2,0.9-0.4c0.1-0.1,0.3-0.1,0.4-0.1c0.2-0.1,0.4-0.2,0.6-0.3
			c0.2-0.1,0.4-0.1,0.5-0.2c0.2-0.1,0.4-0.2,0.7-0.3c0.1,0,0.2-0.1,0.3-0.1c0.2-0.1,0.3-0.2,0.5-0.3c0.2-0.1,0.4-0.2,0.6-0.3
			c0.2-0.1,0.4-0.2,0.6-0.3c0.2-0.1,0.4-0.2,0.5-0.3c0.2-0.1,0.3-0.2,0.5-0.3c0.1-0.1,0.2-0.1,0.3-0.2c0.2-0.1,0.4-0.2,0.6-0.3
			c0.2-0.1,0.4-0.3,0.6-0.4c0.1-0.1,0.2-0.1,0.3-0.2c0.1-0.1,0.1-0.1,0.2-0.2c0.2-0.1,0.3-0.2,0.5-0.3c0.1-0.1,0.2-0.2,0.4-0.3
			c0.1,0,0.1-0.1,0.2-0.1c0.1-0.1,0.2-0.2,0.4-0.3c0.2-0.1,0.4-0.3,0.5-0.4c0.2-0.1,0.4-0.3,0.5-0.4c0.2-0.1,0.3-0.3,0.5-0.4
			c0.2-0.2,0.3-0.3,0.5-0.5c0.1-0.1,0.2-0.1,0.3-0.2c0.3-0.3,0.5-0.5,0.8-0.8c0.2-0.2,0.3-0.3,0.5-0.5c0.2-0.2,0.3-0.4,0.5-0.6
			c0.6-0.6,1.1-1.2,1.6-1.9c0.1-0.2,0.3-0.3,0.4-0.5c0.5-0.7,0.9-1.4,1.4-2C41.5,31.1,41.6,31,41.7,30.9
			C41.6,30.9,41.7,30.9,41.7,30.9z"/>
	</g>
</g>
</svg>
